<svg xmlns="http://www.w3.org/2000/svg" xmlns:xlink="http://www.w3.org/1999/xlink" width="100" height="100" viewBox="0 0 100 100" fill="none"><g opacity="1"  transform="translate(0 0)  rotate(0)"><path id="排除重叠" fill-rule="evenodd" fill="url(#linear_0)" opacity="1" d="M100,50c0,27.61 -22.39,50 -50,50c-27.61,0 -50,-22.39 -50,-50c0,-27.61 22.39,-50 50,-50h50zM29.21,63.89c2.75,4.11 6.65,7.31 11.22,9.21c4.57,1.89 9.6,2.38 14.45,1.42c4.85,-0.96 9.3,-3.35 12.8,-6.84c3.49,-3.5 5.88,-7.95 6.84,-12.8c0.96,-4.85 0.47,-9.88 -1.42,-14.45c-1.9,-4.57 -5.1,-8.47 -9.21,-11.22c-4.11,-2.74 -8.95,-4.21 -13.89,-4.21v25h-25c0,4.94 1.47,9.78 4.21,13.89z"></path></g><defs><radialGradient id="linear_0" cx="100%" cy="0%" fx="100%" fy="0%" r="2.10229" gradientTransform="translate(1 0) scale(1 1) rotate(90) scale(1 1) translate(-1 0)" ><stop offset="0" stop-color="#60A3E6" stop-opacity="1" /><stop offset="1" stop-color="#60A3E6" stop-opacity="0" /></radialGradient></defs></svg>