<svg xmlns="http://www.w3.org/2000/svg" xmlns:xlink="http://www.w3.org/1999/xlink" width="300" height="51" viewBox="0 0 300 51" fill="none"><g opacity="1"  transform="translate(0 3)  rotate(0)"><g opacity="1"  transform="translate(10 4)  rotate(0)"><path id="并集" fill-rule="evenodd" style="fill:#000000" opacity="1" d="M127.8,14.77c-0.33,-1.04 -1.12,-3.28 -1.62,-4.48c0.63,-0.21 1.21,-0.79 1.78,-1.74c0.5,-0.83 2.07,-4.11 2.9,-7.39l5.22,0.83c-0.7,2.41 -1.78,4.98 -2.86,7.09h5.72c0.66,-2.86 1.15,-5.89 1.53,-9.08l5.59,0.91c-0.38,2.86 -0.83,5.6 -1.41,8.17h16.77l-0.05,4.78h-17.92c-0.37,1.16 -0.75,2.28 -1.16,3.4h12.17l0.91,-0.21l3.48,1.62c-1.66,5.18 -4.35,9.21 -7.74,12.36c3.27,1.74 7.16,3.03 11.67,3.77c-1.07,1.08 -2.44,3.16 -3.1,4.53c-5.05,-1.04 -9.28,-2.74 -12.8,-5.07c-3.56,2.29 -7.7,3.9 -12.17,5.07c-0.58,-1.33 -1.69,-3.28 -2.65,-4.4c3.94,-0.83 7.58,-2.16 10.73,-3.98c-1.66,-1.66 -3.15,-3.57 -4.43,-5.69c-2.86,4.4 -6.63,8.01 -11.68,10.79c-0.66,-1.08 -2.44,-3.07 -3.64,-4.03c7.41,-3.94 11.84,-10.16 14.53,-18.16h-5.42c-2.24,0 -3.98,0.29 -4.35,0.91zM166.55,18.42c-0.25,-0.91 -0.99,-3.2 -1.53,-4.44c0.87,-0.21 1.57,-1.08 2.52,-2.45c0.91,-1.28 3.81,-6.51 5.38,-11.41l4.43,2.12c-1.65,3.86 -3.97,7.92 -6.37,11.28l4.1,-0.33c0.87,-1.37 1.69,-2.82 2.44,-4.27l3.81,2.45c-2.32,3.9 -5.18,7.84 -8.07,11.2l7.36,-1.25c-0.16,1.25 -0.2,3.07 -0.12,4.03c-10.8,2.07 -12.54,2.57 -13.66,3.19c-0.21,-0.91 -0.91,-2.99 -1.41,-4.15c1.04,-0.25 1.99,-1.16 3.35,-2.65c0.67,-0.71 1.99,-2.28 3.48,-4.4c-4.01,0.46 -5.05,0.75 -5.71,1.08zM45.33,10.74h12.13v-2.36h-15.61v-4.65h15.61v-3.4h5.18v3.4h15.98v4.65h-15.98v2.36h12.71v15.98h-8.95c3.48,3.27 8.57,6.18 13.42,7.84c-1.2,0.99 -2.78,2.98 -3.56,4.31c-4.89,-2.07 -9.86,-5.6 -13.62,-9.71v10.12h-5.18v-9.91c-3.72,3.98 -8.57,7.34 -13.37,9.42c-0.79,-1.25 -2.32,-3.2 -3.44,-4.19c4.76,-1.66 9.69,-4.61 13.13,-7.88h-8.45zM149.91,2.74l3.85,-2.28c1.61,1.7 3.89,4.19 5.01,5.68l-4.06,2.61c-1.04,-1.53 -3.23,-4.15 -4.8,-6.01zM230.426,3.01192c-0.28,0 -0.48,-0.19 -0.48,-0.51c0,-0.29 0.2,-0.49 0.48,-0.49c0.27,0 0.47,0.2 0.47,0.49c0,0.32 -0.2,0.51 -0.47,0.51zM222.396,9.83192l-2.01,-3.41h-1.54v3.41h-0.62v-7.56h2.2c1.5,0 2.52,0.55 2.52,2.02c0,1.2 -0.74,1.9 -1.89,2.08l2.04,3.46zM241.246,9.83192v-7.56h4.18v0.54h-3.55v2.74h2.98v0.54h-2.98v3.2h3.66v0.54zM183.32,2.36h17.05v31.66h3.31v4.48h-24.01v-4.48h3.65zM0,2.7h37.55v4.89h-16.52v3.9h14.99v22.48c0,2.37 -0.54,3.57 -2.16,4.32c-1.61,0.7 -3.93,0.79 -7.16,0.79c-0.25,-1.25 -0.95,-3.2 -1.61,-4.36c2.03,0.08 4.43,0.08 5.09,0.04c0.7,-0.04 0.95,-0.2 0.95,-0.83v-17.79h-10.1v11.61l2.69,-2.57c2.2,1.37 5.43,3.48 7.08,4.77l-2.98,3.19c-1.49,-1.32 -4.51,-3.48 -6.79,-5.1v10.66h-4.88v-16.84l-2.9,2.99c-1.41,-1.25 -4.39,-3.28 -6.5,-4.65l2.85,-2.78c2.03,1.29 4.97,3.11 6.55,4.32v-5.6h-9.61v11.9l2.86,-2.69c2.07,1.45 5.17,3.61 6.7,4.89l-3.02,3.11c-1.45,-1.41 -4.43,-3.65 -6.54,-5.22v11.07h-4.76v-27.71h14.37v-3.9h-16.15zM82.76,17.59h9.35v-10.16h-7.99v-4.73h35.15v4.73h-7.33v10.16h8.53v4.77h-8.53v16.92h-5.21v-16.92h-9.77c-0.75,6.26 -3.11,12.53 -10.31,17.09c-0.87,-1.12 -2.78,-2.9 -4.02,-3.73c6.05,-3.65 8.28,-8.47 9.07,-13.36h-8.94zM259.006,9.96192c-1.08,0 -1.41,-0.68 -1.41,-1.7v-3.45h-0.85v-0.46l0.87,-0.06l0.07,-1.59h0.51v1.59h1.58v0.52h-1.58v3.5c0,0.69 0.18,1.14 0.92,1.14c0.2,0 0.48,-0.08 0.67,-0.17l0.15,0.48c-0.33,0.11 -0.68,0.2 -0.93,0.2zM220.296,5.90192c1.29,0 2,-0.52 2,-1.61c0,-1.1 -0.71,-1.5 -2,-1.5h-1.45v3.11zM225.676,9.96192c-0.89,0 -1.61,-0.49 -1.61,-1.53c0,-1.21 1.09,-1.81 3.51,-2.07c0.02,-0.82 -0.2,-1.67 -1.25,-1.67c-0.72,0 -1.35,0.35 -1.74,0.63l-0.26,-0.45c0.42,-0.28 1.18,-0.71 2.07,-0.71c1.33,0 1.79,0.94 1.79,2.16v3.51h-0.49l-0.07,-0.71h-0.04c-0.55,0.46 -1.2,0.84 -1.91,0.84zM232.776,9.83192v-5.54h0.49l0.08,0.85h0.02c0.55,-0.55 1.13,-0.98 1.88,-0.98c1.15,0 1.68,0.71 1.68,2.13v3.54h-0.6v-3.45c0,-1.14 -0.36,-1.68 -1.22,-1.68c-0.63,0 -1.09,0.33 -1.73,0.99v4.14zM248.336,9.96192c-0.89,0 -1.6,-0.49 -1.6,-1.53c0,-1.21 1.09,-1.81 3.51,-2.07c0.02,-0.82 -0.21,-1.67 -1.25,-1.67c-0.73,0 -1.35,0.35 -1.74,0.63l-0.26,-0.45c0.41,-0.28 1.18,-0.71 2.07,-0.71c1.32,0 1.79,0.94 1.79,2.16v3.51h-0.5l-0.06,-0.71h-0.04c-0.55,0.46 -1.2,0.84 -1.92,0.84zM254.136,9.96192c-0.81,0 -1.52,-0.34 -2.03,-0.75l0.33,-0.44c0.47,0.4 0.98,0.69 1.72,0.69c0.85,0 1.27,-0.47 1.27,-1.04c0,-0.65 -0.7,-0.95 -1.33,-1.18c-0.81,-0.3 -1.69,-0.64 -1.69,-1.59c0,-0.81 0.64,-1.49 1.81,-1.49c0.61,0 1.2,0.25 1.61,0.59l-0.31,0.41c-0.38,-0.28 -0.77,-0.5 -1.31,-0.5c-0.82,0 -1.2,0.46 -1.2,0.96c0,0.6 0.6,0.84 1.24,1.08c0.85,0.32 1.77,0.62 1.77,1.69c0,0.85 -0.66,1.57 -1.88,1.57zM230.116,9.83192v-5.54h0.6v5.54zM227.576,8.60192v-1.8c-2.17,0.24 -2.91,0.76 -2.91,1.6c0,0.77 0.51,1.05 1.13,1.05c0.61,0 1.14,-0.29 1.78,-0.85zM250.246,8.60192v-1.8c-2.18,0.24 -2.91,0.76 -2.91,1.6c0,0.77 0.51,1.05 1.13,1.05c0.61,0 1.14,-0.29 1.78,-0.85zM195.45,12.82v-5.98h-7.41v5.98zM97.25,7.43v10.16h9.48v-10.16zM209.975,30.6432v-19.0141h0.5v19.0141zM50.18,16.97h7.28v-2.49h-7.28zM62.64,16.97h7.61v-2.49h-7.61zM242.046,24.9819c-0.5,0 -0.73,-0.31 -0.73,-0.95v-7.43h0.6v7.49c0,0.25 0.1,0.36 0.24,0.36c0.05,0 0.09,0 0.2,-0.02l0.09,0.49c-0.1,0.03 -0.2,0.06 -0.4,0.06zM188.04,23.4h7.41v-6.14h-7.41zM218.226,24.8519v-7.56h1.77c2.33,0 3.45,1.44 3.45,3.75c0,2.31 -1.12,3.81 -3.42,3.81zM21.36,20.2l2.82,-2.82c2.11,1.25 5.3,3.11 6.91,4.27l-2.9,3.16c-1.49,-1.21 -4.59,-3.24 -6.83,-4.61zM279.076,24.9819c-1.08,0 -1.42,-0.68 -1.42,-1.7v-3.45h-0.84v-0.46l0.87,-0.06l0.07,-1.59h0.51v1.59h1.58v0.52h-1.58v3.49c0,0.7 0.18,1.14 0.92,1.14c0.2,0 0.48,-0.07 0.67,-0.16l0.14,0.47c-0.32,0.12 -0.67,0.21 -0.92,0.21zM219.926,24.3219c2,0 2.88,-1.32 2.88,-3.28c0,-1.96 -0.88,-3.22 -2.88,-3.22h-1.08v6.5zM227.236,24.9819c-1.43,0 -2.58,-1.08 -2.58,-2.89c0,-1.81 1.18,-2.92 2.43,-2.92c1.33,0 2.13,0.96 2.13,2.58c0,0.14 -0.01,0.3 -0.03,0.44h-3.92c0.04,1.34 0.83,2.28 2.02,2.28c0.59,0 1.05,-0.18 1.46,-0.47l0.24,0.44c-0.45,0.28 -0.96,0.54 -1.75,0.54zM237.866,24.9819c-1.43,0 -2.58,-1.08 -2.58,-2.89c0,-1.81 1.18,-2.92 2.42,-2.92c1.34,0 2.14,0.96 2.14,2.58c0,0.14 -0.01,0.3 -0.03,0.44h-3.92c0.03,1.34 0.83,2.28 2.02,2.28c0.59,0 1.05,-0.18 1.46,-0.47l0.24,0.44c-0.45,0.28 -0.96,0.54 -1.75,0.54zM246.106,24.9819c-1.34,0 -2.5,-1.06 -2.5,-2.89c0,-1.85 1.16,-2.92 2.5,-2.92c1.33,0 2.49,1.07 2.49,2.92c0,1.83 -1.16,2.89 -2.49,2.89zM250.216,27.3019v-7.99h0.49l0.08,0.68h0.02c0.52,-0.42 1.17,-0.82 1.84,-0.82c1.47,0 2.21,1.11 2.21,2.82c0,1.89 -1.13,2.99 -2.43,2.99c-0.52,0 -1.06,-0.24 -1.62,-0.67l0.01,1.01v1.98zM256.476,24.8519v-5.54h0.5l0.07,0.85h0.02c0.5,-0.55 1.11,-0.99 1.74,-0.99c0.88,0 1.32,0.44 1.52,1.12c0.62,-0.68 1.22,-1.12 1.87,-1.12c1.1,0 1.65,0.72 1.65,2.14v3.54h-0.6v-3.46c0,-1.14 -0.39,-1.68 -1.19,-1.68c-0.5,0 -1.01,0.33 -1.6,1v4.14h-0.6v-3.46c0,-1.14 -0.37,-1.68 -1.19,-1.68c-0.48,0 -1.01,0.33 -1.59,1v4.14zM267.956,24.9819c-1.43,0 -2.58,-1.08 -2.58,-2.89c0,-1.81 1.18,-2.92 2.42,-2.92c1.34,0 2.13,0.96 2.13,2.58c0,0.14 -0.01,0.3 -0.03,0.44h-3.91c0.03,1.34 0.83,2.28 2.02,2.28c0.59,0 1.04,-0.18 1.46,-0.47l0.24,0.44c-0.45,0.28 -0.97,0.54 -1.75,0.54zM271.396,24.8519v-5.54h0.5l0.07,0.85h0.02c0.55,-0.55 1.13,-0.99 1.89,-0.99c1.15,0 1.67,0.72 1.67,2.14v3.54h-0.6v-3.46c0,-1.14 -0.36,-1.68 -1.22,-1.68c-0.63,0 -1.08,0.33 -1.73,1v4.14zM231.836,24.8519l-2.05,-5.54h0.64l1.2,3.4c0.17,0.54 0.36,1.1 0.55,1.6h0.04c0.17,-0.5 0.37,-1.06 0.55,-1.6l1.2,-3.4h0.6l-2.02,5.54zM228.656,21.7019c0,-1.33 -0.6,-2.01 -1.57,-2.01c-0.89,0 -1.7,0.75 -1.82,2.01zM239.286,21.7019c0,-1.33 -0.6,-2.01 -1.58,-2.01c-0.89,0 -1.69,0.75 -1.81,2.01zM269.366,21.7019c0,-1.33 -0.6,-2.01 -1.57,-2.01c-0.89,0 -1.7,0.75 -1.81,2.01zM247.976,22.0919c0,-1.42 -0.79,-2.39 -1.87,-2.39c-1.09,0 -1.86,0.97 -1.86,2.39c0,1.41 0.77,2.36 1.86,2.36c1.08,0 1.87,-0.95 1.87,-2.36zM254.216,22.0019c0,-1.33 -0.46,-2.3 -1.68,-2.3c-0.53,0 -1.08,0.31 -1.72,0.87v3.21c0.59,0.5 1.16,0.67 1.57,0.67c1.06,0 1.83,-0.97 1.83,-2.45zM50.18,22.98h7.28v-2.53h-7.28zM62.64,22.98h7.61v-2.53h-7.61zM151.77,22.07h-10.18c1.36,2.28 3.1,4.31 5.21,6.06c1.99,-1.71 3.69,-3.74 4.97,-6.06zM195.45,34.02v-6.27h-7.41v6.27zM165.51,32.32c3.61,-0.67 9.07,-1.95 14.33,-3.16l0.54,4.11c-4.89,1.37 -9.98,2.7 -14,3.77zM219.826,39.8619v-7.02h-2.37v-0.54h5.37v0.54h-2.37v7.02zM226.326,40.0019c-1.43,0 -2.58,-1.08 -2.58,-2.9c0,-1.8 1.18,-2.91 2.42,-2.91c1.34,0 2.14,0.95 2.14,2.57c0,0.15 -0.01,0.3 -0.03,0.45h-3.92c0.03,1.34 0.83,2.28 2.02,2.28c0.59,0 1.05,-0.19 1.46,-0.48l0.24,0.45c-0.45,0.28 -0.96,0.54 -1.75,0.54zM230.996,40.0019c-0.89,0 -1.61,-0.5 -1.61,-1.54c0,-1.21 1.09,-1.8 3.51,-2.07c0.02,-0.82 -0.21,-1.67 -1.25,-1.67c-0.72,0 -1.35,0.35 -1.74,0.63l-0.26,-0.44c0.42,-0.28 1.18,-0.72 2.07,-0.72c1.33,0 1.79,0.94 1.79,2.17v3.5h-0.49l-0.07,-0.7h-0.04c-0.55,0.45 -1.2,0.84 -1.91,0.84zM235.436,39.8619v-5.53h0.49l0.08,0.85h0.02c0.49,-0.55 1.1,-0.99 1.74,-0.99c0.88,0 1.32,0.44 1.52,1.12c0.62,-0.68 1.22,-1.12 1.87,-1.12c1.1,0 1.65,0.72 1.65,2.14v3.53h-0.6v-3.45c0,-1.14 -0.39,-1.68 -1.19,-1.68c-0.5,0 -1.01,0.33 -1.6,1v4.13h-0.6v-3.45c0,-1.14 -0.37,-1.68 -1.19,-1.68c-0.48,0 -1.01,0.33 -1.59,1v4.13zM227.746,36.7219c0,-1.34 -0.6,-2.01 -1.58,-2.01c-0.89,0 -1.69,0.75 -1.81,2.01zM232.896,38.6319v-1.8c-2.17,0.24 -2.91,0.76 -2.91,1.6c0,0.77 0.51,1.05 1.13,1.05c0.61,0 1.14,-0.29 1.78,-0.85z"></path></g></g></svg>